# xmcd CD database file generated by OrangeCD 5.1
#
# Track frame offsets:
#	150
#	19035
#	36106
#	50363
#	67012
#	85538
#	99380
#	118886
#	139360
#	156930
#	174275
#	189263
#	204002
#	215097
#	234511
#	248322
#	261202
#	276770
#	296235
#	308357
#	325144
#
# Disc length: 4649 seconds
#
# Revision: 2
# Processed by: cddbd v1.4PL0 Copyright (c) Steve Scherf et al.
# Submitted via: OrangeCD 5.1
#
DISCID=20122715
DTITLE=Hopkins, Lightnin' - Complete Prestige/Bluesville Recordings - Disc 2
DYEAR=1900
DGENRE=Blues
TTITLE0=Black Gal
TTITLE1=Baby Don't You Tear My Clother
TTITLE2=Good Morning Little School Girl
TTITLE3=Coffee Blues
TTITLE4=Buddy Brown's Blues (98 Degree Blues)
TTITLE5=Wine Spodee-O-Dee
TTITLE6=Sail On, Little Girl, Sail On
TTITLE7=DC-7
TTITLE8=Death Blues
TTITLE9=Goin' To Dallas To See My Pony Run
TTITLE10=Jailhouse Blues
TTITLE11=Blues In The Bottle
TTITLE12=Beans, Beans, Beans
TTITLE13=Catfish Blues
TTITLE14=My Grandpa Is Old Too!
TTITLE15=T Model Blues
TTITLE16=Jackstropper Blues
TTITLE17=You Cook Alright
TTITLE18=You Never Miss Your Water
TTITLE19=Let's Do The Suzie Q
TTITLE20=Smokes Like Lightning
EXTD=
EXTT0=
EXTT1=
EXTT2=
EXTT3=
EXTT4=
EXTT5=
EXTT6=
EXTT7=
EXTT8=
EXTT9=
EXTT10=
EXTT11=
EXTT12=
EXTT13=
EXTT14=
EXTT15=
EXTT16=
EXTT17=
EXTT18=
EXTT19=
EXTT20=
PLAYORDER=
